# xmcd CD database file
#
# Track frame offsets:
#	150
#	23919
#	46533
#	76343
#	109678
#	131908
#	153525
#	175119
#	199057
#	225409
#
# Disc length: 3359 seconds
#
# Revision: 0
# Processed by: cddbd v1.5.1PL0 Copyright (c) Steve Scherf et al.
# Submitted via: CDex 1.51
#
DISCID=730d1d0a
DTITLE=varios - Relajacion 2
DYEAR=2004
DGENRE=New Age
TTITLE0=Vitality  FENG SHUI
TTITLE1=Fountain of Strength FENG SHUI
TTITLE2=Source of Liberty  FENG SHUI
TTITLE3=Balance  FENG SHUI
TTITLE4=Wind and Water    FENG SHUI
TTITLE5=Perfect Circle     TAI CHI
TTITLE6=Meditation    TAI CHI
TTITLE7=Free Hands      TAI CHI
TTITLE8=Circulation      TAI CHI
TTITLE9=Meditation      TAI CHI
EXTD=YEAR: 2004
EXTT0=
EXTT1=
EXTT2=
EXTT3=
EXTT4=
EXTT5=
EXTT6=
EXTT7=
EXTT8=
EXTT9=
PLAYORDER=
